<svg width="146" height="24" viewBox="0 0 146 24" fill="none" xmlns="http://www.w3.org/2000/svg">
<path fill-rule="evenodd" clip-rule="evenodd" d="M40.014 8.553V16.809H36.232V8.189C36.232 5.035 35.136 3.458 32.946 3.458C31.79 3.458 30.84 3.913 30.097 4.823C29.354 5.733 28.982 6.976 28.982 8.553V16.792H25.2V0.264998H28.982V2.548H29.032C29.6703 1.7582 30.4733 1.11728 31.385 0.669998C32.282 0.233998 33.215 0.0169983 34.184 0.0169983C36.486 0.0169983 38.126 0.931998 39.106 2.763H39.172C39.8471 1.88453 40.7257 1.18339 41.732 0.719998C42.744 0.250999 43.862 0.0169983 45.084 0.0169983C46.945 0.0169983 48.376 0.614998 49.378 1.812C50.381 3.009 50.881 4.814 50.881 7.229V16.809H47.099V8.189C47.099 5.035 46.02 3.458 43.862 3.458C42.762 3.458 41.845 3.913 41.112 4.823C40.38 5.733 40.014 6.976 40.014 8.553ZM66.367 14.575C65.112 16.23 63.361 17.057 61.115 17.057H61.116C60.0267 17.0657 58.9463 16.8604 57.936 16.453C56.9817 16.0712 56.1181 15.4934 55.401 14.757C54.696 14.029 54.14 13.136 53.732 12.077C53.325 11.018 53.122 9.86 53.122 8.602C53.1133 7.42759 53.3204 6.26157 53.733 5.162C54.141 4.092 54.696 3.182 55.401 2.432C56.1323 1.66221 57.0139 1.05069 57.991 0.635295C58.9682 0.219897 60.0202 0.0094576 61.082 0.0169983C63.23 0.0169983 64.93 0.760998 66.185 2.25H66.251V0.264998H70.033V16.792H66.417V14.575H66.367ZM58.291 12.218C59.172 13.15 60.311 13.616 61.71 13.616C63.02 13.616 64.129 13.15 65.038 12.218C65.946 11.286 66.401 10.086 66.401 8.619C66.401 7.153 65.957 5.926 65.071 4.938C64.184 3.951 63.069 3.458 61.726 3.458C60.372 3.458 59.241 3.929 58.332 4.872C57.424 5.815 56.97 7.064 56.97 8.619C56.97 10.086 57.411 11.286 58.291 12.218ZM88.822 7.064V16.809H85.04V8.04C85.04 7.18 84.963 6.452 84.809 5.857C84.655 5.261 84.419 4.79 84.099 4.442C83.78 4.095 83.408 3.844 82.984 3.689C82.56 3.535 82.051 3.458 81.456 3.458C80.157 3.458 79.12 3.899 78.343 4.781C77.567 5.664 77.179 6.899 77.179 8.487V16.791H73.397V0.263998H77.179V2.532H77.229C77.9033 1.73012 78.7501 1.09089 79.706 0.661998C80.6669 0.231227 81.709 0.0112934 82.762 0.0169983C84.655 0.0169983 86.14 0.592999 87.212 1.745C88.286 2.898 88.822 4.671 88.822 7.064ZM104.292 14.575C103.036 16.23 101.286 17.057 99.04 17.057C97.951 17.0655 96.871 16.8603 95.861 16.453C94.9063 16.0713 94.0424 15.4935 93.325 14.757C92.621 14.029 92.065 13.136 91.657 12.077C91.25 11.018 91.047 9.86 91.047 8.602C91.038 7.42765 91.2447 6.26164 91.657 5.162C92.065 4.092 92.621 3.182 93.325 2.432C94.0564 1.66208 94.9381 1.0505 95.9155 0.635096C96.8928 0.219694 97.9451 0.00932027 99.007 0.0169983C101.154 0.0169983 102.855 0.760998 104.11 2.25H104.176V0.264998H107.958V16.792H104.342V14.575H104.292ZM96.216 12.218C97.096 13.15 98.236 13.616 99.634 13.616C100.944 13.616 102.054 13.15 102.962 12.218C103.87 11.286 104.325 10.086 104.325 8.619C104.325 7.153 103.881 5.926 102.995 4.938C102.109 3.951 100.994 3.458 99.651 3.458C98.297 3.458 97.165 3.929 96.257 4.872C95.349 5.815 94.894 7.064 94.894 8.619C94.894 10.086 95.335 11.286 96.216 12.218ZM121.924 23.319C120.978 23.601 119.904 23.741 118.704 23.741C117.46 23.741 116.26 23.592 115.104 23.294C113.948 22.996 112.907 22.572 111.982 22.02L112.874 18.679C113.931 19.241 114.864 19.654 115.673 19.919C116.483 20.184 117.421 20.316 118.489 20.316C120.053 20.316 121.263 19.93 122.123 19.158C122.981 18.386 123.411 17.416 123.411 16.246V14.493H123.345C122.057 15.838 120.388 16.511 118.341 16.511C116.81 16.511 115.434 16.177 114.212 15.51C112.99 14.843 112.029 13.886 111.33 12.64C110.631 11.393 110.281 9.965 110.281 8.355C110.281 6.767 110.614 5.335 111.28 4.062C111.946 2.788 112.88 1.792 114.08 1.075C115.28 0.357998 116.634 -1.89699e-06 118.142 -1.89699e-06C119.088 -0.00259494 120.026 0.171032 120.909 0.511998C121.785 0.847474 122.584 1.354 123.262 2.002H123.328V0.264998H127.11V15.088C127.11 16.114 127.017 17.057 126.829 17.917C126.651 18.7546 126.342 19.5588 125.913 20.3C125.503 21.012 124.959 21.6382 124.311 22.144C123.667 22.646 122.871 23.038 121.924 23.319ZM115.459 11.721C116.345 12.587 117.471 13.021 118.836 13.021V13.02C120.212 13.02 121.333 12.565 122.197 11.655C123.061 10.745 123.494 9.59 123.494 8.189C123.494 6.8 123.05 5.669 122.164 4.798C121.278 3.926 120.168 3.491 118.836 3.491C117.438 3.491 116.304 3.932 115.434 4.814C114.564 5.697 114.129 6.839 114.129 8.239C114.129 9.695 114.572 10.856 115.459 11.721ZM141.993 16.213C140.821 16.776 139.464 17.057 137.922 17.057C136.326 17.057 134.889 16.71 133.612 16.015C132.335 15.32 131.327 14.319 130.589 13.012C129.852 11.705 129.483 10.208 129.483 8.52C129.483 7.274 129.687 6.122 130.094 5.062C130.501 4.004 131.063 3.105 131.778 2.366C132.494 1.627 133.348 1.051 134.338 0.636998C135.349 0.219618 136.433 0.00880815 137.526 0.0169983C139.122 0.0169983 140.532 0.374998 141.754 1.092C142.956 1.78761 143.931 2.81592 144.561 4.053C145.211 5.311 145.536 6.739 145.536 8.338C145.536 8.944 145.503 9.447 145.437 9.844H133.413C133.656 11.013 134.198 11.934 135.04 12.606C135.883 13.279 136.91 13.616 138.12 13.616C139.827 13.616 141.198 12.965 142.233 11.664L144.875 13.93C144.126 14.89 143.166 15.651 141.993 16.213ZM133.48 6.783H141.737C141.495 5.757 141.03 4.947 140.342 4.351C139.654 3.756 138.781 3.458 137.724 3.458C136.678 3.458 135.775 3.747 135.015 4.326C134.256 4.905 133.744 5.724 133.48 6.783Z" fill="white"/>
<path fill-rule="evenodd" clip-rule="evenodd" d="M2.786 10.286C4.324 10.286 5.571 11.565 5.571 13.143C5.571 14.72 4.324 16 2.786 16C1.247 16 0 14.72 0 13.143C0 11.565 1.247 10.286 2.786 10.286V10.286ZM2.786 0C4.324 0 5.57 1.28 5.57 2.857C5.57 4.435 4.323 5.714 2.785 5.714C1.247 5.714 0 4.435 0 2.857C0 1.28 1.247 0 2.786 0ZM12.814 0C14.353 0 15.6 1.28 15.6 2.857C15.6 4.435 14.353 5.714 12.814 5.714C11.276 5.714 10.029 4.435 10.029 2.857C10.029 1.28 11.276 0 12.814 0Z" fill="#F3603C"/>
<path opacity="0.5" d="M12.814 16.114C14.3527 16.114 15.6 14.8349 15.6 13.257C15.6 11.6791 14.3527 10.4 12.814 10.4C11.2753 10.4 10.028 11.6791 10.028 13.257C10.028 14.8349 11.2753 16.114 12.814 16.114Z" fill="#F3603C"/>
</svg>
